<svg xmlns="http://www.w3.org/2000/svg" x="0px" y="0px"
width="50" height="50"
viewBox="0 0 172 172"
style=" fill:#000000;"><g transform=""><g fill="none" fill-rule="nonzero" stroke="none" stroke-width="1" stroke-linecap="butt" stroke-linejoin="miter" stroke-miterlimit="10" stroke-dasharray="" stroke-dashoffset="0" font-family="none" font-weight="none" font-size="none" text-anchor="none" style="mix-blend-mode: normal"><path d="M0,172v-172h172v172z" fill="none"></path><path d="M86,172c-47.49649,0 -86,-38.50351 -86,-86v0c0,-47.49649 38.50351,-86 86,-86h0c47.49649,0 86,38.50351 86,86v0c0,47.49649 -38.50351,86 -86,86z" fill="#933c3c"></path><g fill="#ffffff"><path d="M84.85835,35.16964c-2.50529,0.23784 -4.23362,1.26057 -5.39113,2.34672c0.68182,0.28541 1.31607,0.71353 1.83933,1.20508c0.43605,0.32505 1.75212,1.37949 3.23467,3.0444c0.77696,0.87209 0.68182,2.20402 -0.19027,2.98097c-0.87209,0.77696 -2.20402,0.68182 -2.98098,-0.19028c-1.42706,-1.60148 -2.65592,-2.52907 -2.66385,-2.537c-0.09514,-0.06343 -0.23784,-0.11099 -0.31713,-0.19028c-0.71353,-0.71353 -2.21987,-0.83245 -3.61522,-0.2537c-0.75317,0.3092 -2.45772,1.18922 -2.91755,3.2981c-0.07135,0.42019 -0.12685,0.88795 -0.12685,1.33193c0,3.61523 2.65592,6.67548 6.27908,7.42072c1.78383,2.49736 4.77273,3.99578 7.99155,3.99578c3.25053,0 6.21565,-1.53013 7.99155,-4.0592c3.65487,-0.92759 6.27908,-3.99577 6.27908,-7.54757c0,-0.34884 -0.01586,-0.68182 -0.06342,-1.0148c-0.43605,-2.16438 -2.21988,-3.10783 -2.98098,-3.42495c-1.39535,-0.57875 -2.90169,-0.45983 -3.61522,0.2537c-0.07928,0.07928 -0.22199,0.12685 -0.31713,0.19028c-0.00793,0.00793 -1.23679,0.93552 -2.66385,2.537c-0.77696,0.87209 -2.10888,0.96723 -2.98097,0.19028c-0.87209,-0.77696 -0.96723,-2.10888 -0.19027,-2.98097c1.48256,-1.66491 2.79863,-2.71935 3.23467,-3.0444c0.52326,-0.49154 1.15751,-0.91966 1.83932,-1.20508c-1.31607,-1.23679 -3.42495,-2.34672 -6.53277,-2.34672c-0.38848,0 -0.78488,-0.03171 -1.14165,0zM38.43125,42.78064c-3.10782,0 -3.17125,2.33087 -3.17125,2.60043c0,5.13742 5.85888,11.361 9.8943,13.6998c1.0703,0.64218 2.25159,1.22093 3.42495,1.7759c1.03858,-0.13478 2.10095,-0.24577 3.23468,-0.38055c5.85096,-0.69767 12.55022,-1.25264 18.13955,-1.5222c0.19027,-1.45085 0.49154,-2.83827 1.0148,-4.12263c-11.17073,-5.51797 -27.49474,-12.05075 -32.53702,-12.05075zM133.56875,42.78064c-5.06607,0 -21.55657,6.58034 -32.7273,12.11417c0.46776,1.29228 0.7611,2.62421 0.95137,3.86893c5.59726,0.26956 12.33616,0.82453 18.20297,1.5222c1.324,0.15856 2.54493,0.28541 3.74208,0.44397c1.06237,-0.5074 2.07717,-1.0703 3.0444,-1.64905c4.06713,-2.34673 9.95772,-8.56238 9.95772,-13.6998c0,-0.26956 -0.06343,-2.60043 -3.17125,-2.60043zM74.5835,56.73414c-0.5074,1.36364 -0.7611,2.87791 -0.7611,4.50318c0,3.3536 1.30021,5.69239 2.537,7.42072c0.30127,2.15645 1.17336,4.45561 2.47358,6.3425l-0.7611,10.97253c0,0.99102 0.33298,1.91861 0.95137,2.66385l-0.5074,8.1184c0,1.12579 0.42019,2.14059 1.14165,2.91755l-0.57082,6.97675c0,0.88002 0.34884,1.76004 0.95137,2.47357l-0.5074,6.91333c0,0.87209 0.29334,1.70455 0.88795,2.41015l-0.5074,5.45455c0,0.65011 0.16649,1.26057 0.5074,1.7759l-0.31713,3.74208c0,0.80074 0.3092,1.55391 0.82453,2.15645v3.10782c0,0.86417 0.57875,1.62527 1.39535,1.90275c0.21406,0.07135 0.41226,0.12685 0.63425,0.12685c0.61047,0 1.19715,-0.26163 1.58563,-0.7611l1.2685,-1.58562l1.20507,1.58562c0.53118,0.68182 1.4667,0.91966 2.2833,0.63425c0.8166,-0.27748 1.39535,-1.03858 1.39535,-1.90275v-3.10782c0.51533,-0.61839 0.76903,-1.42706 0.7611,-2.34673l-0.31713,-3.5518c0.34091,-0.53118 0.51533,-1.213 0.5074,-1.96618l-0.5074,-5.20085c0.47569,-0.55497 0.95137,-1.42706 0.95137,-2.66385l-0.5074,-6.53278c0.75317,-0.76903 1.08615,-1.83932 0.88795,-2.91755l-0.5074,-6.65963c0.89588,-0.88795 1.34778,-2.13267 1.14165,-3.2981l-0.57083,-7.8647c0.59461,-0.7611 0.9593,-1.71248 0.95138,-2.72728l-0.63425,-9.19662c-1.91861,0.80074 -4.02749,1.19715 -6.40592,1.20507h-0.06343c-1.11787,0 -2.02167,-0.91173 -2.0296,-2.0296c-0.00793,-1.11787 0.91173,-2.02167 2.0296,-2.0296c2.72728,-0.00793 8.77643,-1.45085 8.94293,-3.99577c0.0555,-0.35677 0.07928,-0.72146 0.12685,-1.07823c1.22886,-1.60148 2.537,-4.0592 2.537,-7.48415c0,-1.33193 -0.30127,-2.91755 -0.82452,-4.50318c-0.26163,0.11892 -0.49154,0.21406 -0.7611,0.31712c-2.58457,2.92548 -6.36628,4.63003 -10.4017,4.63003c-3.97199,0 -7.69028,-1.65698 -10.27485,-4.50318c-0.38848,-0.13478 -0.77696,-0.27748 -1.14165,-0.44397zM101.9831,62.82294c-0.30127,3.20296 -1.50634,5.73203 -2.66385,7.48415c-0.17442,1.68869 -1.03858,3.02062 -2.21988,4.0592c0.66596,0.32505 1.41121,0.64218 2.15645,0.95138c0.0555,0.02378 0.13478,0.03964 0.19027,0.06342c0.67389,0.27748 1.37157,0.51533 2.09302,0.7611c0.14271,0.04757 0.29334,0.14271 0.44397,0.19028c0.66596,0.22199 1.324,0.38055 2.0296,0.57082c0.20613,0.0555 0.42812,0.14271 0.63425,0.19028c0.90381,0.22199 1.84725,0.36469 2.7907,0.5074c0.86417,0.12685 1.9741,0.19027 3.36152,0.19027c4.44768,0 10.56026,-0.63425 15.222,-1.58562c7.25423,-1.47463 10.52855,-3.40117 10.52855,-6.27908c0,-0.12685 0.01586,-0.2537 0,-0.38055c0,-0.02378 -0.0555,-0.03964 -0.06342,-0.06343c-0.01586,-0.11099 0.02378,-0.21406 0,-0.31713c-0.00793,-0.02378 -0.0555,-0.03964 -0.06343,-0.06342c-0.03171,-0.10307 -0.01586,-0.22199 -0.06342,-0.31713c-0.01586,-0.03171 -0.04757,-0.03171 -0.06343,-0.06343c-0.04757,-0.08721 -0.12685,-0.16649 -0.19027,-0.2537c-0.02378,-0.03964 -0.03171,-0.08721 -0.06343,-0.12685c-0.06342,-0.07928 -0.17442,-0.17442 -0.2537,-0.2537c-0.04757,-0.04757 -0.07135,-0.07928 -0.12685,-0.12685c-0.07928,-0.06343 -0.15856,-0.12685 -0.2537,-0.19027c-0.07928,-0.0555 -0.15856,-0.13478 -0.2537,-0.19028c-0.08721,-0.0555 -0.21406,-0.07135 -0.31712,-0.12685c-0.12685,-0.06343 -0.23784,-0.12685 -0.38055,-0.19028c-0.07928,-0.03964 -0.16649,-0.08721 -0.2537,-0.12685c-0.19028,-0.07928 -0.41226,-0.17442 -0.63425,-0.2537c-0.06343,-0.02378 -0.12685,-0.03964 -0.19028,-0.06342c-0.26956,-0.09514 -0.5074,-0.15856 -0.82453,-0.2537c-0.02378,-0.00793 -0.10307,-0.0555 -0.12685,-0.06342c-2.16438,-0.63425 -5.43077,-1.24472 -10.46512,-1.90275c-0.16649,-0.02378 -0.39641,-0.03964 -0.57082,-0.06342c-0.74524,-0.09514 -1.49842,-0.15856 -2.2833,-0.2537c-0.5074,-0.0555 -1.00687,-0.13478 -1.5222,-0.19028c-0.5629,-0.06342 -1.13372,-0.13478 -1.71247,-0.19028c-4.69345,-0.48362 -9.59303,-0.86417 -13.89008,-1.07822zM69.89005,63.01322c-4.13848,0.20613 -8.83986,0.55497 -13.38268,1.0148c-1.42706,0.14271 -2.82241,0.28541 -4.18605,0.44398c-15.81661,1.87897 -17.06132,3.52009 -17.06132,5.64483c0,2.80656 3.28224,4.71723 10.59198,6.15223c4.71723,0.92759 10.83775,1.5222 15.28542,1.5222c1.40328,0 2.60042,-0.06342 3.48837,-0.19027c0.88002,-0.13478 1.68869,-0.30127 2.537,-0.5074c0.51533,-0.12685 1.02273,-0.23784 1.5222,-0.38055c0.3092,-0.08721 0.65011,-0.15856 0.95137,-0.2537c0.71353,-0.22199 1.42706,-0.5074 2.09303,-0.7611c0.07135,-0.02378 0.11892,-0.03964 0.19027,-0.06343c0.72939,-0.28541 1.42706,-0.58668 2.09302,-0.88795c-0.7056,-1.45877 -1.213,-2.97305 -1.5222,-4.50317c-1.48256,-2.29916 -2.32294,-4.70931 -2.60042,-7.23045z"></path></g><path d="" fill="none"></path><path d="" fill="none"></path></g></g></svg>
